# xmcd
#
# Track frame offsets: 
#        183
#        12933
#        26608
#        37283
#        50133
#        61458
#        74408
#        85945
#        99958
#        112183
#        123995
#        136308
#        152020
#        168483
#        181795
#        194695
#
# Disc length: 2719 seconds
#
# Revision: 2
# Processed by: cddbd v1.5.2PL0 Copyright (c) Steve Scherf et al.
# Submitted via: ExactAudioCopy v0.99pb5
#
DISCID=e50a9d10
DTITLE=Ray Charles - Ray Charles
DYEAR=2011
DGENRE=Blues
TTITLE0=Goin Down Slow
TTITLE1=Alone In The City
TTITLE2=Now She's Gone
TTITLE3=Rockin' Chair Blues
TTITLE4=A Sentimental Blues
TTITLE5=Can Anyone Ask For More
TTITLE6=Let's Have A Ball
TTITLE7=This Love Of Mine
TTITLE8=Can't You See Darlin'
TTITLE9=If I Give You My Love
TTITLE10=See See Rider
TTITLE11=I Found My Baby There
TTITLE12=Georgia On My Mind
TTITLE13=Take These Chains From My Heart
TTITLE14=Unchain My Heart
TTITLE15=Busted
EXTD=
EXTT0=
EXTT1=
EXTT2=
EXTT3=
EXTT4=
EXTT5=
EXTT6=
EXTT7=
EXTT8=
EXTT9=
EXTT10=
EXTT11=
EXTT12=
EXTT13=
EXTT14=
EXTT15=
PLAYORDER=
